<svg width="489" height="111" viewBox="0 0 489 111" fill="none" xmlns="http://www.w3.org/2000/svg">
<g filter="url(#filter0_dd_471_4)">
<path d="M37.7443 10.9943V83.7216H18V10.9943H37.7443ZM117.028 10.9943V83.7216H100.55L74.272 45.5113H73.8459V83.7216H54.1016V10.9943H70.8629L96.7152 49.0625H97.2834V10.9943H117.028ZM172.572 33.7216C172.382 31.3541 171.495 29.5075 169.908 28.1818C168.346 26.856 165.967 26.1931 162.771 26.1931C160.735 26.1931 159.066 26.4417 157.763 26.9389C156.485 27.4124 155.538 28.0634 154.923 28.892C154.307 29.7206 153.987 30.6676 153.964 31.7329C153.916 32.6089 154.07 33.402 154.425 34.1122C154.804 34.7987 155.396 35.4261 156.201 35.9943C157.006 36.5388 158.036 37.036 159.29 37.4858C160.545 37.9356 162.037 38.338 163.765 38.6931L169.731 39.9716C173.755 40.8238 177.2 41.9484 180.065 43.3451C182.929 44.7419 185.273 46.3873 187.096 48.2812C188.919 50.1515 190.256 52.2585 191.109 54.6022C191.985 56.946 192.434 59.5028 192.458 62.2727C192.434 67.0549 191.239 71.1032 188.871 74.4176C186.504 77.732 183.119 80.2533 178.715 81.9815C174.335 83.7097 169.068 84.5738 162.913 84.5738C156.592 84.5738 151.076 83.6387 146.364 81.7684C141.677 79.8982 138.031 77.0217 135.427 73.1392C132.846 69.2329 131.544 64.2377 131.521 58.1534H150.271C150.389 60.3788 150.945 62.249 151.94 63.7642C152.934 65.2793 154.331 66.4275 156.13 67.2088C157.953 67.99 160.119 68.3806 162.629 68.3806C164.736 68.3806 166.499 68.1202 167.92 67.5994C169.34 67.0786 170.417 66.3565 171.151 65.4332C171.885 64.5099 172.264 63.4564 172.288 62.2727C172.264 61.16 171.897 60.1894 171.187 59.3608C170.5 58.5085 169.364 57.7509 167.778 57.088C166.192 56.4015 164.049 55.7623 161.35 55.1704L154.106 53.6079C147.666 52.2111 142.588 49.8792 138.871 46.6122C135.178 43.3215 133.344 38.8352 133.367 33.1534C133.344 28.5369 134.575 24.5004 137.06 21.044C139.57 17.5639 143.038 14.8532 147.465 12.9119C151.916 10.9706 157.018 9.99996 162.771 9.99996C168.642 9.99996 173.72 10.9824 178.005 12.9474C182.29 14.9124 185.593 17.6823 187.913 21.2571C190.256 24.8082 191.44 28.963 191.464 33.7216H172.572ZM226.713 10.9943V83.7216H206.969V10.9943H226.713ZM290.3 35C289.993 33.7452 289.507 32.6444 288.844 31.6974C288.182 30.7268 287.353 29.91 286.359 29.2471C285.388 28.5606 284.252 28.0516 282.95 27.7201C281.671 27.365 280.263 27.1875 278.724 27.1875C275.409 27.1875 272.58 27.9806 270.237 29.5667C267.916 31.1529 266.141 33.4375 264.91 36.4204C263.702 39.4034 263.099 43.0019 263.099 47.2159C263.099 51.4772 263.679 55.1231 264.839 58.1534C265.999 61.1837 267.727 63.5038 270.023 65.1136C272.32 66.7235 275.173 67.5284 278.582 67.5284C281.588 67.5284 284.086 67.0904 286.075 66.2145C288.087 65.3385 289.59 64.0956 290.585 62.4858C291.579 60.8759 292.076 58.982 292.076 56.8039L295.485 57.1591H278.866V43.0966H311.11V53.1818C311.11 59.8106 309.701 65.4806 306.884 70.1917C304.091 74.8792 300.232 78.4777 295.308 80.9872C290.407 83.473 284.784 84.7159 278.44 84.7159C271.361 84.7159 265.147 83.2126 259.796 80.2059C254.446 77.1993 250.267 72.9143 247.261 67.3508C244.278 61.7874 242.786 55.1704 242.786 47.5C242.786 41.4867 243.698 36.16 245.521 31.5199C247.367 26.8797 249.924 22.9616 253.191 19.7656C256.458 16.5459 260.234 14.1193 264.519 12.4858C268.804 10.8286 273.397 9.99996 278.298 9.99996C282.606 9.99996 286.607 10.6155 290.3 11.8466C294.017 13.0539 297.296 14.7822 300.137 17.0312C303.002 19.2566 305.31 21.8963 307.062 24.9503C308.814 28.0042 309.879 31.3541 310.258 35H290.3ZM327.316 83.7216V10.9943H347.061V39.4034H373.197V10.9943H392.941V83.7216H373.197V55.3125H347.061V83.7216H327.316ZM407.328 26.9034V10.9943H470.538V26.9034H448.663V83.7216H429.203V26.9034H407.328Z" fill="url(#paint0_linear_471_4)"/>
</g>
<defs>
<filter id="filter0_dd_471_4" x="0" y="0" width="488.538" height="110.716" filterUnits="userSpaceOnUse" color-interpolation-filters="sRGB">
<feFlood flood-opacity="0" result="BackgroundImageFix"/>
<feColorMatrix in="SourceAlpha" type="matrix" values="0 0 0 0 0 0 0 0 0 0 0 0 0 0 0 0 0 0 127 0" result="hardAlpha"/>
<feOffset dy="4"/>
<feGaussianBlur stdDeviation="2"/>
<feColorMatrix type="matrix" values="0 0 0 0 0 0 0 0 0 0 0 0 0 0 0 0 0 0 0.3 0"/>
<feBlend mode="normal" in2="BackgroundImageFix" result="effect1_dropShadow_471_4"/>
<feColorMatrix in="SourceAlpha" type="matrix" values="0 0 0 0 0 0 0 0 0 0 0 0 0 0 0 0 0 0 127 0" result="hardAlpha"/>
<feMorphology radius="6" operator="dilate" in="SourceAlpha" result="effect2_dropShadow_471_4"/>
<feOffset dy="8"/>
<feGaussianBlur stdDeviation="6"/>
<feColorMatrix type="matrix" values="0 0 0 0 0 0 0 0 0 0 0 0 0 0 0 0 0 0 0.15 0"/>
<feBlend mode="normal" in2="effect1_dropShadow_471_4" result="effect2_dropShadow_471_4"/>
<feBlend mode="normal" in="SourceGraphic" in2="effect2_dropShadow_471_4" result="shape"/>
</filter>
<linearGradient id="paint0_linear_471_4" x1="-2.20313" y1="83.7216" x2="479.797" y2="17.7216" gradientUnits="userSpaceOnUse">
<stop stop-color="#1B2F53"/>
<stop offset="1" stop-color="#27757F"/>
</linearGradient>
</defs>
</svg>
